<svg xmlns="http://www.w3.org/2000/svg" viewBox="0 0 800 1000" width="800" height="1000">
  <defs>
    <radialGradient id="mpGlow" cx="50%" cy="40%" r="60%">
      <stop offset="0" stop-color="#8B7CF6" stop-opacity="0.18"/>
      <stop offset="0.65" stop-color="#8B7CF6" stop-opacity="0"/>
    </radialGradient>
  </defs>
  <rect width="800" height="1000" fill="#0f0f0f"/>
  <circle cx="430" cy="430" r="360" fill="url(#mpGlow)"/>
  <g stroke="#8B7CF6" stroke-opacity="0.06" stroke-width="1">
    <line x1="0" y1="250" x2="800" y2="250"/>
    <line x1="0" y1="500" x2="800" y2="500"/>
    <line x1="0" y1="750" x2="800" y2="750"/>
    <line x1="400" y1="0" x2="400" y2="1000"/>
  </g>
  <!-- layered deck (Workflow / Studio / LAB) -->
  <rect x="214" y="252" width="372" height="384" rx="18" fill="#8B7CF6" fill-opacity="0.015" stroke="#8B7CF6" stroke-opacity="0.16" stroke-width="1.2"/>
  <rect x="238" y="280" width="372" height="384" rx="18" fill="#8B7CF6" fill-opacity="0.025" stroke="#8B7CF6" stroke-opacity="0.3" stroke-width="1.3"/>
  <rect x="262" y="308" width="372" height="384" rx="18" fill="#8B7CF6" fill-opacity="0.05" stroke="#8B7CF6" stroke-opacity="0.6" stroke-width="1.6"/>
  <!-- orchestrator hub -> role-assigned crew -->
  <g stroke="#8B7CF6" stroke-opacity="0.38" stroke-width="1.2">
    <line x1="448" y1="392" x2="312" y2="516"/>
    <line x1="448" y1="392" x2="380" y2="542"/>
    <line x1="448" y1="392" x2="448" y2="550"/>
    <line x1="448" y1="392" x2="516" y2="542"/>
    <line x1="448" y1="392" x2="584" y2="516"/>
  </g>
  <circle cx="448" cy="392" r="17" fill="none" stroke="#8B7CF6" stroke-opacity="0.9" stroke-width="2.2"/>
  <circle cx="448" cy="392" r="6" fill="#8B7CF6" fill-opacity="0.9"/>
  <g fill="#0f0f0f" stroke="#8B7CF6" stroke-opacity="0.72" stroke-width="2">
    <circle cx="312" cy="516" r="12"/><circle cx="380" cy="542" r="12"/><circle cx="448" cy="550" r="12"/><circle cx="516" cy="542" r="12"/><circle cx="584" cy="516" r="12"/>
  </g>
  <g fill="#8B7CF6" fill-opacity="0.85">
    <circle cx="312" cy="516" r="3"/><circle cx="380" cy="542" r="3"/><circle cx="448" cy="550" r="3"/><circle cx="516" cy="542" r="3"/><circle cx="584" cy="516" r="3"/>
  </g>
  <!-- crew -> generative engine rail -->
  <g stroke="#22D3C5" stroke-opacity="0.28" stroke-width="1">
    <line x1="312" y1="528" x2="307" y2="628"/>
    <line x1="380" y1="554" x2="365" y2="628"/>
    <line x1="448" y1="562" x2="481" y2="628"/>
    <line x1="516" y1="554" x2="539" y2="628"/>
    <line x1="584" y1="528" x2="597" y2="628"/>
  </g>
  <g fill="none" stroke="#22D3C5" stroke-opacity="0.5" stroke-width="1.6">
    <rect x="286" y="628" width="42" height="42" rx="4"/>
    <rect x="344" y="628" width="42" height="42" rx="4"/>
    <rect x="402" y="628" width="42" height="42" rx="4"/>
    <rect x="518" y="628" width="42" height="42" rx="4"/>
    <rect x="576" y="628" width="42" height="42" rx="4"/>
  </g>
  <rect x="460" y="628" width="42" height="42" rx="4" fill="#22D3C5" fill-opacity="0.1" stroke="#22D3C5" stroke-opacity="0.95" stroke-width="2"/>
  <text x="56" y="852" fill="#22D3C5" fill-opacity="0.6" font-family="monospace" font-size="16" letter-spacing="5">MULTI-AGENT ORCHESTRATION</text>
  <text x="54" y="912" fill="#ffffff" fill-opacity="0.92" font-family="Helvetica, Arial, sans-serif" font-weight="700" font-size="44">Mindplace</text>
</svg>
